<mxfile host="app.diagrams.net" agent="Mozilla/5.0 (Windows NT 10.0; Win64; x64; rv:134.0) Gecko/20100101 Firefox/134.0" version="26.0.10">
  <diagram name="Page-1" id="ESqO-2wNNPzEnjeRVPNe">
    <mxGraphModel dx="1750" dy="930" grid="1" gridSize="10" guides="1" tooltips="1" connect="1" arrows="1" fold="1" page="1" pageScale="1" pageWidth="1169" pageHeight="827" math="0" shadow="0">
      <root>
        <mxCell id="0" />
        <mxCell id="1" parent="0" />
        <mxCell id="Ef-oSfbt3b9jw_UiCb8U-1" value="&lt;div&gt;Using the &quot;node traversal&quot; format&lt;/div&gt;" style="text;html=1;align=center;verticalAlign=middle;whiteSpace=wrap;rounded=0;" vertex="1" parent="1">
          <mxGeometry x="70" y="10" width="90" height="30" as="geometry" />
        </mxCell>
        <mxCell id="Ef-oSfbt3b9jw_UiCb8U-6" value="" style="group" vertex="1" connectable="0" parent="1">
          <mxGeometry x="180" y="10" width="100" height="87.5" as="geometry" />
        </mxCell>
        <mxCell id="Ef-oSfbt3b9jw_UiCb8U-4" value="" style="triangle;whiteSpace=wrap;html=1;movable=1;resizable=1;rotatable=1;deletable=1;editable=1;locked=0;connectable=1;" vertex="1" parent="Ef-oSfbt3b9jw_UiCb8U-6">
          <mxGeometry x="52.5" width="30" height="50" as="geometry" />
        </mxCell>
        <mxCell id="Ef-oSfbt3b9jw_UiCb8U-5" value="" style="shape=or;whiteSpace=wrap;html=1;rotation=90;movable=1;resizable=1;rotatable=1;deletable=1;editable=1;locked=0;connectable=1;" vertex="1" parent="Ef-oSfbt3b9jw_UiCb8U-6">
          <mxGeometry x="32.5" y="20" width="35" height="100" as="geometry" />
        </mxCell>
        <mxCell id="Ef-oSfbt3b9jw_UiCb8U-7" value="The player moves to new nodes&lt;br&gt;(star system/planet/etc)" style="text;html=1;align=center;verticalAlign=middle;whiteSpace=wrap;rounded=0;" vertex="1" parent="1">
          <mxGeometry x="140" y="290" width="130" height="30" as="geometry" />
        </mxCell>
        <mxCell id="Ef-oSfbt3b9jw_UiCb8U-12" style="edgeStyle=orthogonalEdgeStyle;rounded=0;orthogonalLoop=1;jettySize=auto;html=1;exitX=1;exitY=0.5;exitDx=0;exitDy=0;entryX=0;entryY=0.5;entryDx=0;entryDy=0;" edge="1" parent="1" source="Ef-oSfbt3b9jw_UiCb8U-8" target="Ef-oSfbt3b9jw_UiCb8U-9">
          <mxGeometry relative="1" as="geometry" />
        </mxCell>
        <mxCell id="Ef-oSfbt3b9jw_UiCb8U-8" value="" style="ellipse;whiteSpace=wrap;html=1;aspect=fixed;" vertex="1" parent="1">
          <mxGeometry x="110" y="230" width="30" height="30" as="geometry" />
        </mxCell>
        <mxCell id="Ef-oSfbt3b9jw_UiCb8U-13" style="edgeStyle=orthogonalEdgeStyle;rounded=0;orthogonalLoop=1;jettySize=auto;html=1;exitX=1;exitY=0.5;exitDx=0;exitDy=0;entryX=0;entryY=0.5;entryDx=0;entryDy=0;" edge="1" parent="1" source="Ef-oSfbt3b9jw_UiCb8U-9" target="Ef-oSfbt3b9jw_UiCb8U-10">
          <mxGeometry relative="1" as="geometry" />
        </mxCell>
        <mxCell id="Ef-oSfbt3b9jw_UiCb8U-9" value="" style="ellipse;whiteSpace=wrap;html=1;aspect=fixed;" vertex="1" parent="1">
          <mxGeometry x="170" y="230" width="30" height="30" as="geometry" />
        </mxCell>
        <mxCell id="Ef-oSfbt3b9jw_UiCb8U-14" style="edgeStyle=orthogonalEdgeStyle;rounded=0;orthogonalLoop=1;jettySize=auto;html=1;exitX=1;exitY=0.5;exitDx=0;exitDy=0;entryX=0;entryY=0.5;entryDx=0;entryDy=0;" edge="1" parent="1" source="Ef-oSfbt3b9jw_UiCb8U-10" target="Ef-oSfbt3b9jw_UiCb8U-11">
          <mxGeometry relative="1" as="geometry" />
        </mxCell>
        <mxCell id="Ef-oSfbt3b9jw_UiCb8U-10" value="" style="ellipse;whiteSpace=wrap;html=1;aspect=fixed;" vertex="1" parent="1">
          <mxGeometry x="230" y="230" width="30" height="30" as="geometry" />
        </mxCell>
        <mxCell id="Ef-oSfbt3b9jw_UiCb8U-11" value="" style="ellipse;whiteSpace=wrap;html=1;aspect=fixed;" vertex="1" parent="1">
          <mxGeometry x="290" y="230" width="30" height="30" as="geometry" />
        </mxCell>
        <mxCell id="Ef-oSfbt3b9jw_UiCb8U-15" value="" style="group" vertex="1" connectable="0" parent="1">
          <mxGeometry x="160" y="170" width="40" height="40" as="geometry" />
        </mxCell>
        <mxCell id="Ef-oSfbt3b9jw_UiCb8U-16" value="" style="triangle;whiteSpace=wrap;html=1;movable=1;resizable=1;rotatable=1;deletable=1;editable=1;locked=0;connectable=1;" vertex="1" parent="Ef-oSfbt3b9jw_UiCb8U-15">
          <mxGeometry x="21" width="12" height="22.857142857142858" as="geometry" />
        </mxCell>
        <mxCell id="Ef-oSfbt3b9jw_UiCb8U-17" value="" style="shape=or;whiteSpace=wrap;html=1;rotation=90;movable=1;resizable=1;rotatable=1;deletable=1;editable=1;locked=0;connectable=1;" vertex="1" parent="Ef-oSfbt3b9jw_UiCb8U-15">
          <mxGeometry x="13" y="9.142857142857142" width="14" height="45.714285714285715" as="geometry" />
        </mxCell>
        <mxCell id="Ef-oSfbt3b9jw_UiCb8U-19" value="" style="curved=1;endArrow=classic;html=1;rounded=0;exitX=0.333;exitY=0;exitDx=0;exitDy=0;exitPerimeter=0;" edge="1" parent="1" source="Ef-oSfbt3b9jw_UiCb8U-8">
          <mxGeometry width="50" height="50" relative="1" as="geometry">
            <mxPoint x="130" y="220" as="sourcePoint" />
            <mxPoint x="190" y="230" as="targetPoint" />
            <Array as="points">
              <mxPoint x="130" y="220" />
              <mxPoint x="150" y="210" />
              <mxPoint x="170" y="210" />
            </Array>
          </mxGeometry>
        </mxCell>
        <mxCell id="Ef-oSfbt3b9jw_UiCb8U-21" value="" style="endArrow=none;html=1;rounded=0;strokeWidth=0.5;entryX=0;entryY=0.75;entryDx=0;entryDy=0;entryPerimeter=0;" edge="1" parent="1" target="Ef-oSfbt3b9jw_UiCb8U-17">
          <mxGeometry width="50" height="50" relative="1" as="geometry">
            <mxPoint x="110" y="180" as="sourcePoint" />
            <mxPoint x="310" y="160" as="targetPoint" />
          </mxGeometry>
        </mxCell>
        <mxCell id="Ef-oSfbt3b9jw_UiCb8U-22" value="Player" style="text;html=1;align=center;verticalAlign=middle;whiteSpace=wrap;rounded=0;" vertex="1" parent="1">
          <mxGeometry x="70" y="160" width="60" height="30" as="geometry" />
        </mxCell>
        <mxCell id="Ef-oSfbt3b9jw_UiCb8U-23" value="" style="endArrow=none;html=1;rounded=0;strokeWidth=0.5;entryX=0.5;entryY=1;entryDx=0;entryDy=0;" edge="1" parent="1" target="Ef-oSfbt3b9jw_UiCb8U-8">
          <mxGeometry width="50" height="50" relative="1" as="geometry">
            <mxPoint x="80" y="280" as="sourcePoint" />
            <mxPoint x="179" y="205" as="targetPoint" />
          </mxGeometry>
        </mxCell>
        <mxCell id="Ef-oSfbt3b9jw_UiCb8U-24" value="Node" style="text;html=1;align=center;verticalAlign=middle;whiteSpace=wrap;rounded=0;" vertex="1" parent="1">
          <mxGeometry x="40" y="260" width="60" height="30" as="geometry" />
        </mxCell>
        <mxCell id="Ef-oSfbt3b9jw_UiCb8U-25" value="" style="rounded=0;whiteSpace=wrap;html=1;fillColor=none;" vertex="1" parent="1">
          <mxGeometry x="40" y="120" width="320" height="240" as="geometry" />
        </mxCell>
        <mxCell id="Ef-oSfbt3b9jw_UiCb8U-26" value="At each node, a battle will begin, and the play-space will open" style="text;html=1;align=center;verticalAlign=middle;whiteSpace=wrap;rounded=0;" vertex="1" parent="1">
          <mxGeometry x="400" y="130" width="120" height="30" as="geometry" />
        </mxCell>
        <mxCell id="Ef-oSfbt3b9jw_UiCb8U-27" value="" style="rounded=0;whiteSpace=wrap;html=1;fillColor=none;" vertex="1" parent="1">
          <mxGeometry x="360" y="120" width="320" height="240" as="geometry" />
        </mxCell>
        <mxCell id="Ef-oSfbt3b9jw_UiCb8U-28" value="" style="group" vertex="1" connectable="0" parent="1">
          <mxGeometry x="410" y="280" width="70" height="60" as="geometry" />
        </mxCell>
        <mxCell id="Ef-oSfbt3b9jw_UiCb8U-29" value="" style="triangle;whiteSpace=wrap;html=1;movable=1;resizable=1;rotatable=1;deletable=1;editable=1;locked=0;connectable=1;" vertex="1" parent="Ef-oSfbt3b9jw_UiCb8U-28">
          <mxGeometry x="36.75" width="21" height="34.285714285714285" as="geometry" />
        </mxCell>
        <mxCell id="Ef-oSfbt3b9jw_UiCb8U-30" value="" style="shape=or;whiteSpace=wrap;html=1;rotation=90;movable=1;resizable=1;rotatable=1;deletable=1;editable=1;locked=0;connectable=1;" vertex="1" parent="Ef-oSfbt3b9jw_UiCb8U-28">
          <mxGeometry x="22.75" y="13.714285714285715" width="24.5" height="68.57142857142857" as="geometry" />
        </mxCell>
        <mxCell id="Ef-oSfbt3b9jw_UiCb8U-42" value="Player&#39;s command ship" style="text;html=1;align=center;verticalAlign=middle;whiteSpace=wrap;rounded=0;" vertex="1" parent="Ef-oSfbt3b9jw_UiCb8U-28">
          <mxGeometry x="-43.25" y="-10" width="80" height="30" as="geometry" />
        </mxCell>
        <mxCell id="Ef-oSfbt3b9jw_UiCb8U-32" value="" style="group" vertex="1" connectable="0" parent="1">
          <mxGeometry x="520" y="180" width="50" height="50" as="geometry" />
        </mxCell>
        <mxCell id="Ef-oSfbt3b9jw_UiCb8U-33" value="" style="triangle;whiteSpace=wrap;html=1;movable=1;resizable=1;rotatable=1;deletable=1;editable=1;locked=0;connectable=1;" vertex="1" parent="Ef-oSfbt3b9jw_UiCb8U-32">
          <mxGeometry x="26.25" width="15" height="28.57142857142857" as="geometry" />
        </mxCell>
        <mxCell id="Ef-oSfbt3b9jw_UiCb8U-34" value="" style="shape=or;whiteSpace=wrap;html=1;rotation=90;movable=1;resizable=1;rotatable=1;deletable=1;editable=1;locked=0;connectable=1;" vertex="1" parent="Ef-oSfbt3b9jw_UiCb8U-32">
          <mxGeometry x="16.25" y="11.428571428571427" width="17.5" height="57.14285714285714" as="geometry" />
        </mxCell>
        <mxCell id="Ef-oSfbt3b9jw_UiCb8U-35" value="" style="rounded=0;whiteSpace=wrap;html=1;" vertex="1" parent="1">
          <mxGeometry x="494" y="275" width="36" height="55" as="geometry" />
        </mxCell>
        <mxCell id="Ef-oSfbt3b9jw_UiCb8U-36" value="" style="rounded=0;whiteSpace=wrap;html=1;" vertex="1" parent="1">
          <mxGeometry x="534" y="275" width="36" height="55" as="geometry" />
        </mxCell>
        <mxCell id="Ef-oSfbt3b9jw_UiCb8U-38" value="" style="rounded=0;whiteSpace=wrap;html=1;" vertex="1" parent="1">
          <mxGeometry x="580" y="275" width="36" height="55" as="geometry" />
        </mxCell>
        <mxCell id="Ef-oSfbt3b9jw_UiCb8U-39" value="" style="rounded=0;whiteSpace=wrap;html=1;" vertex="1" parent="1">
          <mxGeometry x="620" y="275" width="36" height="55" as="geometry" />
        </mxCell>
        <mxCell id="Ef-oSfbt3b9jw_UiCb8U-40" value="" style="rounded=0;whiteSpace=wrap;html=1;" vertex="1" parent="1">
          <mxGeometry x="400" y="177.5" width="36" height="55" as="geometry" />
        </mxCell>
        <mxCell id="Ef-oSfbt3b9jw_UiCb8U-41" value="" style="rounded=0;whiteSpace=wrap;html=1;" vertex="1" parent="1">
          <mxGeometry x="442" y="177.5" width="36" height="55" as="geometry" />
        </mxCell>
        <mxCell id="Ef-oSfbt3b9jw_UiCb8U-43" value="Enemy&#39;s command ship" style="text;html=1;align=center;verticalAlign=middle;whiteSpace=wrap;rounded=0;" vertex="1" parent="1">
          <mxGeometry x="570" y="175" width="80" height="30" as="geometry" />
        </mxCell>
        <mxCell id="Ef-oSfbt3b9jw_UiCb8U-44" value="Enemy&#39;s cards" style="text;html=1;align=center;verticalAlign=middle;whiteSpace=wrap;rounded=0;" vertex="1" parent="1">
          <mxGeometry x="400" y="225" width="86" height="30" as="geometry" />
        </mxCell>
        <mxCell id="Ef-oSfbt3b9jw_UiCb8U-45" value="Player&#39;s cards" style="text;html=1;align=center;verticalAlign=middle;whiteSpace=wrap;rounded=0;" vertex="1" parent="1">
          <mxGeometry x="520" y="250" width="104" height="30" as="geometry" />
        </mxCell>
        <mxCell id="Ef-oSfbt3b9jw_UiCb8U-46" value="During the card game, each turn, the player draws a hand of several cards to choose from" style="text;html=1;align=center;verticalAlign=middle;whiteSpace=wrap;rounded=0;" vertex="1" parent="1">
          <mxGeometry x="690" y="130" width="250" height="30" as="geometry" />
        </mxCell>
        <mxCell id="Ef-oSfbt3b9jw_UiCb8U-47" value="Each card has a cost to buy them, dictated according to the game&#39;s economy. Factors raising card costs would be: rarity, strength, utility, etc." style="text;html=1;align=center;verticalAlign=middle;whiteSpace=wrap;rounded=0;" vertex="1" parent="1">
          <mxGeometry x="690" y="320" width="290" height="30" as="geometry" />
        </mxCell>
        <mxCell id="Ef-oSfbt3b9jw_UiCb8U-58" value="" style="group" vertex="1" connectable="0" parent="1">
          <mxGeometry x="720" y="179" width="200" height="72" as="geometry" />
        </mxCell>
        <mxCell id="Ef-oSfbt3b9jw_UiCb8U-48" value="" style="rounded=0;whiteSpace=wrap;html=1;" vertex="1" parent="Ef-oSfbt3b9jw_UiCb8U-58">
          <mxGeometry width="40" height="51" as="geometry" />
        </mxCell>
        <mxCell id="Ef-oSfbt3b9jw_UiCb8U-49" value="" style="rounded=0;whiteSpace=wrap;html=1;" vertex="1" parent="Ef-oSfbt3b9jw_UiCb8U-58">
          <mxGeometry x="40" width="40" height="51" as="geometry" />
        </mxCell>
        <mxCell id="Ef-oSfbt3b9jw_UiCb8U-50" value="" style="rounded=0;whiteSpace=wrap;html=1;" vertex="1" parent="Ef-oSfbt3b9jw_UiCb8U-58">
          <mxGeometry x="80" width="40" height="51" as="geometry" />
        </mxCell>
        <mxCell id="Ef-oSfbt3b9jw_UiCb8U-51" value="" style="rounded=0;whiteSpace=wrap;html=1;" vertex="1" parent="Ef-oSfbt3b9jw_UiCb8U-58">
          <mxGeometry x="120" width="40" height="51" as="geometry" />
        </mxCell>
        <mxCell id="Ef-oSfbt3b9jw_UiCb8U-52" value="" style="rounded=0;whiteSpace=wrap;html=1;" vertex="1" parent="Ef-oSfbt3b9jw_UiCb8U-58">
          <mxGeometry x="160" width="40" height="51" as="geometry" />
        </mxCell>
        <mxCell id="Ef-oSfbt3b9jw_UiCb8U-65" value="Actor" style="shape=umlActor;verticalLabelPosition=bottom;verticalAlign=top;html=1;outlineConnect=0;" vertex="1" parent="Ef-oSfbt3b9jw_UiCb8U-58">
          <mxGeometry x="7.5" y="6.5" width="25" height="38" as="geometry" />
        </mxCell>
        <mxCell id="Ef-oSfbt3b9jw_UiCb8U-66" value="Actor" style="shape=umlActor;verticalLabelPosition=bottom;verticalAlign=top;html=1;outlineConnect=0;" vertex="1" parent="Ef-oSfbt3b9jw_UiCb8U-58">
          <mxGeometry x="47.5" y="6.5" width="25" height="38" as="geometry" />
        </mxCell>
        <mxCell id="Ef-oSfbt3b9jw_UiCb8U-67" value="Actor" style="shape=umlActor;verticalLabelPosition=bottom;verticalAlign=top;html=1;outlineConnect=0;" vertex="1" parent="Ef-oSfbt3b9jw_UiCb8U-58">
          <mxGeometry x="87.5" y="6.5" width="25" height="38" as="geometry" />
        </mxCell>
        <mxCell id="Ef-oSfbt3b9jw_UiCb8U-68" value="Actor" style="shape=umlActor;verticalLabelPosition=bottom;verticalAlign=top;html=1;outlineConnect=0;" vertex="1" parent="Ef-oSfbt3b9jw_UiCb8U-58">
          <mxGeometry x="127.5" y="6.5" width="25" height="38" as="geometry" />
        </mxCell>
        <mxCell id="Ef-oSfbt3b9jw_UiCb8U-69" value="Actor" style="shape=umlActor;verticalLabelPosition=bottom;verticalAlign=top;html=1;outlineConnect=0;" vertex="1" parent="Ef-oSfbt3b9jw_UiCb8U-58">
          <mxGeometry x="167.5" y="6.5" width="25" height="38" as="geometry" />
        </mxCell>
        <mxCell id="Ef-oSfbt3b9jw_UiCb8U-59" value="" style="group" vertex="1" connectable="0" parent="1">
          <mxGeometry x="720" y="230" width="200" height="20" as="geometry" />
        </mxCell>
        <mxCell id="Ef-oSfbt3b9jw_UiCb8U-60" value="&lt;font style=&quot;font-size: 9px;&quot;&gt;price:1&lt;/font&gt;" style="rounded=0;whiteSpace=wrap;html=1;" vertex="1" parent="Ef-oSfbt3b9jw_UiCb8U-59">
          <mxGeometry width="40" height="20" as="geometry" />
        </mxCell>
        <mxCell id="Ef-oSfbt3b9jw_UiCb8U-61" value="&lt;font style=&quot;font-size: 9px;&quot;&gt;price:12&lt;/font&gt;" style="rounded=0;whiteSpace=wrap;html=1;" vertex="1" parent="Ef-oSfbt3b9jw_UiCb8U-59">
          <mxGeometry x="40" width="40" height="20" as="geometry" />
        </mxCell>
        <mxCell id="Ef-oSfbt3b9jw_UiCb8U-62" value="&lt;font style=&quot;font-size: 9px;&quot;&gt;price:4&lt;/font&gt;" style="rounded=0;whiteSpace=wrap;html=1;" vertex="1" parent="Ef-oSfbt3b9jw_UiCb8U-59">
          <mxGeometry x="80" width="40" height="20" as="geometry" />
        </mxCell>
        <mxCell id="Ef-oSfbt3b9jw_UiCb8U-63" value="&lt;font style=&quot;font-size: 9px;&quot;&gt;price:7&lt;/font&gt;" style="rounded=0;whiteSpace=wrap;html=1;" vertex="1" parent="Ef-oSfbt3b9jw_UiCb8U-59">
          <mxGeometry x="120" width="40" height="20" as="geometry" />
        </mxCell>
        <mxCell id="Ef-oSfbt3b9jw_UiCb8U-64" value="&lt;font style=&quot;font-size: 9px;&quot;&gt;price:2&lt;/font&gt;" style="rounded=0;whiteSpace=wrap;html=1;" vertex="1" parent="Ef-oSfbt3b9jw_UiCb8U-59">
          <mxGeometry x="160" width="40" height="20" as="geometry" />
        </mxCell>
        <mxCell id="Ef-oSfbt3b9jw_UiCb8U-70" value="&lt;div align=&quot;left&quot;&gt;Player wallet:&lt;br&gt;14 currency&lt;/div&gt;" style="rounded=0;whiteSpace=wrap;html=1;align=left;" vertex="1" parent="1">
          <mxGeometry x="700" y="265" width="100" height="35" as="geometry" />
        </mxCell>
        <mxCell id="Ef-oSfbt3b9jw_UiCb8U-71" value="" style="rounded=0;whiteSpace=wrap;html=1;fillColor=none;" vertex="1" parent="1">
          <mxGeometry x="680" y="119" width="310" height="241" as="geometry" />
        </mxCell>
        <mxCell id="Ef-oSfbt3b9jw_UiCb8U-72" value="When the player draws a hand of cards they are dissatisfied with, or if the player wants to buy more cards in the same turn, then they have the option of &quot;Rerolling&quot; the drawn hand." style="text;html=1;align=center;verticalAlign=middle;whiteSpace=wrap;rounded=0;" vertex="1" parent="1">
          <mxGeometry x="365" y="430" width="310" height="30" as="geometry" />
        </mxCell>
        <mxCell id="Ef-oSfbt3b9jw_UiCb8U-75" value="" style="group" vertex="1" connectable="0" parent="1">
          <mxGeometry x="380" y="490" width="200" height="72" as="geometry" />
        </mxCell>
        <mxCell id="Ef-oSfbt3b9jw_UiCb8U-94" value="" style="group" vertex="1" connectable="0" parent="Ef-oSfbt3b9jw_UiCb8U-75">
          <mxGeometry width="200" height="51" as="geometry" />
        </mxCell>
        <mxCell id="Ef-oSfbt3b9jw_UiCb8U-76" value="" style="rounded=0;whiteSpace=wrap;html=1;" vertex="1" parent="Ef-oSfbt3b9jw_UiCb8U-94">
          <mxGeometry width="40" height="51" as="geometry" />
        </mxCell>
        <mxCell id="Ef-oSfbt3b9jw_UiCb8U-77" value="" style="rounded=0;whiteSpace=wrap;html=1;" vertex="1" parent="Ef-oSfbt3b9jw_UiCb8U-94">
          <mxGeometry x="40" width="40" height="51" as="geometry" />
        </mxCell>
        <mxCell id="Ef-oSfbt3b9jw_UiCb8U-78" value="" style="rounded=0;whiteSpace=wrap;html=1;" vertex="1" parent="Ef-oSfbt3b9jw_UiCb8U-94">
          <mxGeometry x="80" width="40" height="51" as="geometry" />
        </mxCell>
        <mxCell id="Ef-oSfbt3b9jw_UiCb8U-79" value="" style="rounded=0;whiteSpace=wrap;html=1;" vertex="1" parent="Ef-oSfbt3b9jw_UiCb8U-94">
          <mxGeometry x="120" width="40" height="51" as="geometry" />
        </mxCell>
        <mxCell id="Ef-oSfbt3b9jw_UiCb8U-80" value="" style="rounded=0;whiteSpace=wrap;html=1;" vertex="1" parent="Ef-oSfbt3b9jw_UiCb8U-94">
          <mxGeometry x="160" width="40" height="51" as="geometry" />
        </mxCell>
        <mxCell id="Ef-oSfbt3b9jw_UiCb8U-81" value="Actor" style="shape=umlActor;verticalLabelPosition=bottom;verticalAlign=top;html=1;outlineConnect=0;" vertex="1" parent="Ef-oSfbt3b9jw_UiCb8U-94">
          <mxGeometry x="7.5" y="6.5" width="25" height="38" as="geometry" />
        </mxCell>
        <mxCell id="Ef-oSfbt3b9jw_UiCb8U-82" value="Actor" style="shape=umlActor;verticalLabelPosition=bottom;verticalAlign=top;html=1;outlineConnect=0;" vertex="1" parent="Ef-oSfbt3b9jw_UiCb8U-94">
          <mxGeometry x="47.5" y="6.5" width="25" height="38" as="geometry" />
        </mxCell>
        <mxCell id="Ef-oSfbt3b9jw_UiCb8U-83" value="Actor" style="shape=umlActor;verticalLabelPosition=bottom;verticalAlign=top;html=1;outlineConnect=0;" vertex="1" parent="Ef-oSfbt3b9jw_UiCb8U-94">
          <mxGeometry x="87.5" y="6.5" width="25" height="38" as="geometry" />
        </mxCell>
        <mxCell id="Ef-oSfbt3b9jw_UiCb8U-84" value="Actor" style="shape=umlActor;verticalLabelPosition=bottom;verticalAlign=top;html=1;outlineConnect=0;" vertex="1" parent="Ef-oSfbt3b9jw_UiCb8U-94">
          <mxGeometry x="127.5" y="6.5" width="25" height="38" as="geometry" />
        </mxCell>
        <mxCell id="Ef-oSfbt3b9jw_UiCb8U-85" value="Actor" style="shape=umlActor;verticalLabelPosition=bottom;verticalAlign=top;html=1;outlineConnect=0;" vertex="1" parent="Ef-oSfbt3b9jw_UiCb8U-94">
          <mxGeometry x="167.5" y="6.5" width="25" height="38" as="geometry" />
        </mxCell>
        <mxCell id="Ef-oSfbt3b9jw_UiCb8U-97" value="" style="endArrow=none;html=1;rounded=0;exitX=0;exitY=0.5;exitDx=0;exitDy=0;" edge="1" parent="Ef-oSfbt3b9jw_UiCb8U-94" source="Ef-oSfbt3b9jw_UiCb8U-95">
          <mxGeometry width="50" height="50" relative="1" as="geometry">
            <mxPoint x="180" y="90" as="sourcePoint" />
            <mxPoint x="230" y="40" as="targetPoint" />
          </mxGeometry>
        </mxCell>
        <mxCell id="Ef-oSfbt3b9jw_UiCb8U-86" value="" style="group" vertex="1" connectable="0" parent="1">
          <mxGeometry x="380" y="541" width="200" height="20" as="geometry" />
        </mxCell>
        <mxCell id="Ef-oSfbt3b9jw_UiCb8U-87" value="&lt;font style=&quot;font-size: 9px;&quot;&gt;price:1&lt;/font&gt;" style="rounded=0;whiteSpace=wrap;html=1;" vertex="1" parent="Ef-oSfbt3b9jw_UiCb8U-86">
          <mxGeometry width="40" height="20" as="geometry" />
        </mxCell>
        <mxCell id="Ef-oSfbt3b9jw_UiCb8U-88" value="&lt;font style=&quot;font-size: 9px;&quot;&gt;price:12&lt;/font&gt;" style="rounded=0;whiteSpace=wrap;html=1;" vertex="1" parent="Ef-oSfbt3b9jw_UiCb8U-86">
          <mxGeometry x="40" width="40" height="20" as="geometry" />
        </mxCell>
        <mxCell id="Ef-oSfbt3b9jw_UiCb8U-89" value="&lt;font style=&quot;font-size: 9px;&quot;&gt;price:4&lt;/font&gt;" style="rounded=0;whiteSpace=wrap;html=1;" vertex="1" parent="Ef-oSfbt3b9jw_UiCb8U-86">
          <mxGeometry x="80" width="40" height="20" as="geometry" />
        </mxCell>
        <mxCell id="Ef-oSfbt3b9jw_UiCb8U-90" value="&lt;font style=&quot;font-size: 9px;&quot;&gt;price:7&lt;/font&gt;" style="rounded=0;whiteSpace=wrap;html=1;" vertex="1" parent="Ef-oSfbt3b9jw_UiCb8U-86">
          <mxGeometry x="120" width="40" height="20" as="geometry" />
        </mxCell>
        <mxCell id="Ef-oSfbt3b9jw_UiCb8U-91" value="&lt;font style=&quot;font-size: 9px;&quot;&gt;price:2&lt;/font&gt;" style="rounded=0;whiteSpace=wrap;html=1;" vertex="1" parent="Ef-oSfbt3b9jw_UiCb8U-86">
          <mxGeometry x="160" width="40" height="20" as="geometry" />
        </mxCell>
        <mxCell id="Ef-oSfbt3b9jw_UiCb8U-95" value="Reroll&lt;br&gt;cost: 1" style="rhombus;whiteSpace=wrap;html=1;" vertex="1" parent="1">
          <mxGeometry x="620" y="520" width="80" height="80" as="geometry" />
        </mxCell>
        <mxCell id="Ef-oSfbt3b9jw_UiCb8U-99" value="" style="endArrow=none;html=1;rounded=0;exitX=1;exitY=0.5;exitDx=0;exitDy=0;entryX=1;entryY=0.5;entryDx=0;entryDy=0;" edge="1" parent="1" source="Ef-oSfbt3b9jw_UiCb8U-95">
          <mxGeometry width="50" height="50" relative="1" as="geometry">
            <mxPoint x="630" y="570" as="sourcePoint" />
            <mxPoint x="690" y="530" as="targetPoint" />
          </mxGeometry>
        </mxCell>
        <mxCell id="Ef-oSfbt3b9jw_UiCb8U-100" value="" style="endArrow=none;html=1;rounded=0;" edge="1" parent="1">
          <mxGeometry width="50" height="50" relative="1" as="geometry">
            <mxPoint x="610" y="530" as="sourcePoint" />
            <mxPoint x="650" y="490" as="targetPoint" />
          </mxGeometry>
        </mxCell>
        <mxCell id="Ef-oSfbt3b9jw_UiCb8U-101" value="" style="endArrow=none;html=1;rounded=0;" edge="1" parent="1">
          <mxGeometry width="50" height="50" relative="1" as="geometry">
            <mxPoint x="650" y="490" as="sourcePoint" />
            <mxPoint x="690" y="530" as="targetPoint" />
          </mxGeometry>
        </mxCell>
        <mxCell id="Ef-oSfbt3b9jw_UiCb8U-102" value="" style="endArrow=none;html=1;rounded=0;exitX=0.5;exitY=0;exitDx=0;exitDy=0;" edge="1" parent="1" source="Ef-oSfbt3b9jw_UiCb8U-95">
          <mxGeometry width="50" height="50" relative="1" as="geometry">
            <mxPoint x="690" y="540" as="sourcePoint" />
            <mxPoint x="650" y="490" as="targetPoint" />
          </mxGeometry>
        </mxCell>
        <mxCell id="Ef-oSfbt3b9jw_UiCb8U-103" value="" style="endArrow=none;html=1;rounded=0;strokeWidth=0.5;" edge="1" parent="1">
          <mxGeometry width="50" height="50" relative="1" as="geometry">
            <mxPoint x="680" y="520" as="sourcePoint" />
            <mxPoint x="730" y="470" as="targetPoint" />
          </mxGeometry>
        </mxCell>
        <mxCell id="Ef-oSfbt3b9jw_UiCb8U-104" value="(This is a die)" style="text;html=1;align=center;verticalAlign=middle;whiteSpace=wrap;rounded=0;" vertex="1" parent="1">
          <mxGeometry x="720" y="450" width="60" height="30" as="geometry" />
        </mxCell>
        <mxCell id="Ef-oSfbt3b9jw_UiCb8U-105" value="" style="endArrow=classic;html=1;rounded=0;" edge="1" parent="1">
          <mxGeometry width="50" height="50" relative="1" as="geometry">
            <mxPoint x="530" y="570" as="sourcePoint" />
            <mxPoint x="530" y="620" as="targetPoint" />
          </mxGeometry>
        </mxCell>
        <mxCell id="Ef-oSfbt3b9jw_UiCb8U-106" value="" style="group" vertex="1" connectable="0" parent="1">
          <mxGeometry x="380" y="630" width="200" height="72" as="geometry" />
        </mxCell>
        <mxCell id="Ef-oSfbt3b9jw_UiCb8U-107" value="" style="group" vertex="1" connectable="0" parent="Ef-oSfbt3b9jw_UiCb8U-106">
          <mxGeometry width="200" height="51" as="geometry" />
        </mxCell>
        <mxCell id="Ef-oSfbt3b9jw_UiCb8U-108" value="" style="rounded=0;whiteSpace=wrap;html=1;" vertex="1" parent="Ef-oSfbt3b9jw_UiCb8U-107">
          <mxGeometry width="40" height="51" as="geometry" />
        </mxCell>
        <mxCell id="Ef-oSfbt3b9jw_UiCb8U-109" value="" style="rounded=0;whiteSpace=wrap;html=1;" vertex="1" parent="Ef-oSfbt3b9jw_UiCb8U-107">
          <mxGeometry x="40" width="40" height="51" as="geometry" />
        </mxCell>
        <mxCell id="Ef-oSfbt3b9jw_UiCb8U-110" value="" style="rounded=0;whiteSpace=wrap;html=1;" vertex="1" parent="Ef-oSfbt3b9jw_UiCb8U-107">
          <mxGeometry x="80" width="40" height="51" as="geometry" />
        </mxCell>
        <mxCell id="Ef-oSfbt3b9jw_UiCb8U-111" value="" style="rounded=0;whiteSpace=wrap;html=1;" vertex="1" parent="Ef-oSfbt3b9jw_UiCb8U-107">
          <mxGeometry x="120" width="40" height="51" as="geometry" />
        </mxCell>
        <mxCell id="Ef-oSfbt3b9jw_UiCb8U-112" value="" style="rounded=0;whiteSpace=wrap;html=1;" vertex="1" parent="Ef-oSfbt3b9jw_UiCb8U-107">
          <mxGeometry x="160" width="40" height="51" as="geometry" />
        </mxCell>
        <mxCell id="Ef-oSfbt3b9jw_UiCb8U-113" value="Actor" style="shape=umlActor;verticalLabelPosition=bottom;verticalAlign=top;html=1;outlineConnect=0;" vertex="1" parent="Ef-oSfbt3b9jw_UiCb8U-107">
          <mxGeometry x="7.5" y="6.5" width="25" height="38" as="geometry" />
        </mxCell>
        <mxCell id="Ef-oSfbt3b9jw_UiCb8U-114" value="Actor" style="shape=umlActor;verticalLabelPosition=bottom;verticalAlign=top;html=1;outlineConnect=0;" vertex="1" parent="Ef-oSfbt3b9jw_UiCb8U-107">
          <mxGeometry x="47.5" y="6.5" width="25" height="38" as="geometry" />
        </mxCell>
        <mxCell id="Ef-oSfbt3b9jw_UiCb8U-115" value="Actor" style="shape=umlActor;verticalLabelPosition=bottom;verticalAlign=top;html=1;outlineConnect=0;" vertex="1" parent="Ef-oSfbt3b9jw_UiCb8U-107">
          <mxGeometry x="87.5" y="6.5" width="25" height="38" as="geometry" />
        </mxCell>
        <mxCell id="Ef-oSfbt3b9jw_UiCb8U-116" value="Actor" style="shape=umlActor;verticalLabelPosition=bottom;verticalAlign=top;html=1;outlineConnect=0;" vertex="1" parent="Ef-oSfbt3b9jw_UiCb8U-107">
          <mxGeometry x="127.5" y="6.5" width="25" height="38" as="geometry" />
        </mxCell>
        <mxCell id="Ef-oSfbt3b9jw_UiCb8U-117" value="Actor" style="shape=umlActor;verticalLabelPosition=bottom;verticalAlign=top;html=1;outlineConnect=0;" vertex="1" parent="Ef-oSfbt3b9jw_UiCb8U-107">
          <mxGeometry x="167.5" y="6.5" width="25" height="38" as="geometry" />
        </mxCell>
        <mxCell id="Ef-oSfbt3b9jw_UiCb8U-119" value="" style="group" vertex="1" connectable="0" parent="1">
          <mxGeometry x="380" y="681" width="200" height="20" as="geometry" />
        </mxCell>
        <mxCell id="Ef-oSfbt3b9jw_UiCb8U-120" value="&lt;font style=&quot;font-size: 9px;&quot;&gt;price:5&lt;/font&gt;" style="rounded=0;whiteSpace=wrap;html=1;" vertex="1" parent="Ef-oSfbt3b9jw_UiCb8U-119">
          <mxGeometry width="40" height="20" as="geometry" />
        </mxCell>
        <mxCell id="Ef-oSfbt3b9jw_UiCb8U-121" value="&lt;font style=&quot;font-size: 9px;&quot;&gt;price:4&lt;/font&gt;" style="rounded=0;whiteSpace=wrap;html=1;" vertex="1" parent="Ef-oSfbt3b9jw_UiCb8U-119">
          <mxGeometry x="40" width="40" height="20" as="geometry" />
        </mxCell>
        <mxCell id="Ef-oSfbt3b9jw_UiCb8U-122" value="&lt;font style=&quot;font-size: 9px;&quot;&gt;price:6&lt;/font&gt;" style="rounded=0;whiteSpace=wrap;html=1;" vertex="1" parent="Ef-oSfbt3b9jw_UiCb8U-119">
          <mxGeometry x="80" width="40" height="20" as="geometry" />
        </mxCell>
        <mxCell id="Ef-oSfbt3b9jw_UiCb8U-123" value="&lt;font style=&quot;font-size: 9px;&quot;&gt;price:3&lt;/font&gt;" style="rounded=0;whiteSpace=wrap;html=1;" vertex="1" parent="Ef-oSfbt3b9jw_UiCb8U-119">
          <mxGeometry x="120" width="40" height="20" as="geometry" />
        </mxCell>
        <mxCell id="Ef-oSfbt3b9jw_UiCb8U-124" value="&lt;font style=&quot;font-size: 9px;&quot;&gt;price:8&lt;/font&gt;" style="rounded=0;whiteSpace=wrap;html=1;" vertex="1" parent="Ef-oSfbt3b9jw_UiCb8U-119">
          <mxGeometry x="160" width="40" height="20" as="geometry" />
        </mxCell>
        <mxCell id="Ef-oSfbt3b9jw_UiCb8U-126" value="" style="endArrow=none;html=1;rounded=0;strokeWidth=0.5;exitX=1;exitY=0.5;exitDx=0;exitDy=0;" edge="1" parent="1" source="Ef-oSfbt3b9jw_UiCb8U-112">
          <mxGeometry width="50" height="50" relative="1" as="geometry">
            <mxPoint x="690" y="530" as="sourcePoint" />
            <mxPoint x="610" y="680" as="targetPoint" />
          </mxGeometry>
        </mxCell>
        <mxCell id="Ef-oSfbt3b9jw_UiCb8U-127" value="Different cards" style="text;html=1;align=center;verticalAlign=middle;whiteSpace=wrap;rounded=0;" vertex="1" parent="1">
          <mxGeometry x="596" y="670" width="60" height="30" as="geometry" />
        </mxCell>
        <mxCell id="Ef-oSfbt3b9jw_UiCb8U-128" value="In addition to the material cost, the player must answer a skillsbuild question to reroll. For as long as they can both afford the cost and answer the questions successfully, the player can keep rerolling. An incorrect answer will prevent further rerolls until the next turn." style="text;html=1;align=center;verticalAlign=middle;whiteSpace=wrap;rounded=0;" vertex="1" parent="1">
          <mxGeometry x="362" y="740" width="380" height="30" as="geometry" />
        </mxCell>
        <mxCell id="Ef-oSfbt3b9jw_UiCb8U-129" value="" style="rounded=0;whiteSpace=wrap;html=1;fillColor=none;" vertex="1" parent="1">
          <mxGeometry x="360" y="400" width="420" height="390" as="geometry" />
        </mxCell>
      </root>
    </mxGraphModel>
  </diagram>
</mxfile>
